<mxfile host="drawio-plugin" modified="2021-10-17T13:09:11.876Z" agent="5.0 (Windows NT 6.2; Win64; x64) AppleWebKit/537.36 (KHTML, like Gecko) Chrome/89.0.4389.114 Safari/537.36" etag="eW3TKND0L1wjnt-SwIhg" version="14.7.4" type="embed"><diagram id="cRSHTPdM5HDKTYMeAB4P" name="Page-1"><mxGraphModel dx="1666" dy="743" grid="1" gridSize="10" guides="1" tooltips="1" connect="1" arrows="1" fold="1" page="1" pageScale="1" pageWidth="850" pageHeight="1100" math="0" shadow="0"><root><mxCell id="0"/><mxCell id="1" parent="0"/><mxCell id="2" value="" style="rounded=0;whiteSpace=wrap;html=1;" parent="1" vertex="1"><mxGeometry x="35" y="50" width="645" height="380" as="geometry"/></mxCell><mxCell id="3" value="&lt;font color=&quot;#ff6666&quot;&gt;login page&lt;/font&gt;" style="text;html=1;align=center;verticalAlign=middle;resizable=0;points=[];autosize=1;strokeColor=none;" parent="1" vertex="1"><mxGeometry x="35" y="20" width="70" height="20" as="geometry"/></mxCell><mxCell id="4" value="" style="whiteSpace=wrap;html=1;aspect=fixed;" parent="1" vertex="1"><mxGeometry x="125" y="90" width="280" height="280" as="geometry"/></mxCell><mxCell id="6" value="Login" style="text;html=1;strokeColor=none;fillColor=none;align=center;verticalAlign=middle;whiteSpace=wrap;rounded=0;" parent="1" vertex="1"><mxGeometry x="100" y="90" width="330" height="20" as="geometry"/></mxCell><mxCell id="8" value="Email" style="rounded=0;whiteSpace=wrap;html=1;fillColor=#ffe6cc;strokeColor=#d79b00;" parent="1" vertex="1"><mxGeometry x="200" y="190" width="140" height="20" as="geometry"/></mxCell><mxCell id="10" value="Password" style="rounded=0;whiteSpace=wrap;html=1;fillColor=#ffe6cc;strokeColor=#d79b00;" parent="1" vertex="1"><mxGeometry x="200" y="220" width="140" height="20" as="geometry"/></mxCell><mxCell id="13" value="&lt;font color=&quot;#0a0a0a&quot;&gt;login form&lt;/font&gt;" style="text;html=1;align=center;verticalAlign=middle;resizable=0;points=[];autosize=1;strokeColor=none;fontColor=#D9D9D9;" parent="1" vertex="1"><mxGeometry x="55" y="60" width="70" height="20" as="geometry"/></mxCell><mxCell id="14" value="You don't have an account? Sign up" style="rounded=0;whiteSpace=wrap;html=1;fillColor=#dae8fc;strokeColor=#6c8ebf;" parent="1" vertex="1"><mxGeometry x="165" y="320" width="200" height="20" as="geometry"/></mxCell><mxCell id="16" value="Log in" style="rounded=0;whiteSpace=wrap;html=1;fillColor=#e1d5e7;strokeColor=#9673a6;" vertex="1" parent="1"><mxGeometry x="195" y="260" width="140" height="20" as="geometry"/></mxCell><mxCell id="17" value="logo" style="ellipse;whiteSpace=wrap;html=1;" vertex="1" parent="1"><mxGeometry x="230" y="130" width="70" height="50" as="geometry"/></mxCell><mxCell id="18" value="Cancel" style="rounded=0;whiteSpace=wrap;html=1;fillColor=#e1d5e7;strokeColor=#9673a6;" vertex="1" parent="1"><mxGeometry x="195" y="290" width="140" height="20" as="geometry"/></mxCell><mxCell id="19" value="img background" style="text;html=1;align=center;verticalAlign=middle;resizable=0;points=[];autosize=1;strokeColor=none;" vertex="1" parent="1"><mxGeometry x="490" y="180" width="100" height="20" as="geometry"/></mxCell></root></mxGraphModel></diagram></mxfile>